<?xml version="1.0" encoding="utf-8"?>
<!-- Generator: Adobe Illustrator 23.0.0, SVG Export Plug-In . SVG Version: 6.00 Build 0)  -->
<svg version="1.1" id="Layer_1" xmlns="http://www.w3.org/2000/svg" xmlns:xlink="http://www.w3.org/1999/xlink" x="0px" y="0px"
	 viewBox="0 0 512 512" style="enable-background:new 0 0 512 512;" xml:space="preserve">
<style type="text/css">
	.st0{fill:#C0C0C0;}
</style>
<path class="st0" d="M345,39.1l127.8,129.3c52.4,53,52.4,138.2,0,191.2l-112,113.3c-9.3,9.4-24.5,9.5-33.9,0.2s-9.5-24.5-0.2-33.9
	l111.9-113.3c33.9-34.3,33.9-89.4,0-123.7L310.9,72.9c-9.3-9.4-9.2-24.6,0.2-33.9s24.6-9.2,33.9,0.2V39.1z M0,229.5V80
	c0-26.5,21.5-48,48-48h149.5c17,0,33.3,6.7,45.3,18.7l168,168c25,25,25,65.5,0,90.5L277.3,442.7c-25,25-65.5,25-90.5,0l-168-168
	C6.7,262.7,0,246.5,0,229.5z M144,144c0-17.7-14.3-32-32-32s-32,14.3-32,32s14.3,32,32,32S144,161.7,144,144z"/>
</svg>
